<svg width="213" height="214" viewBox="0 0 213 214" fill="none" xmlns="http://www.w3.org/2000/svg">
<g clip-path="url(#clip0_202:327)">
<path d="M113.743 139.22L138.696 128.718C139.746 128.559 140.614 128.127 141.316 127.438C141.332 127.422 141.364 127.389 141.38 127.372C143.835 124.816 142.697 119.975 137.881 112.608C136.623 110.682 135.153 108.645 133.504 106.53C138.164 104.171 143.781 101.979 147.799 102.251C149.063 102.332 150.166 101.395 150.245 100.132C150.324 98.8681 149.385 97.7634 148.122 97.6825C144.006 97.3793 138.589 98.8733 132.064 102.097C131.534 102.347 131.019 102.612 130.538 102.878C127.491 99.275 123.99 95.5488 120.231 91.8906C116.127 87.897 111.962 84.2279 107.968 81.1069C115.295 71.8031 118.403 61.6796 119.706 54.3956C121.338 45.2621 120.611 38.6192 120.575 38.3284C120.427 37.0678 119.297 36.1598 118.037 36.3054C116.776 36.4511 115.87 37.5796 116.018 38.8402C116.018 38.9049 116.709 45.2245 115.164 53.7094C113.934 60.426 111.058 69.7535 104.302 78.3054C102.486 76.9853 100.721 75.8103 99.0552 74.7635C91.5758 70.1658 86.7379 69.1598 84.2165 71.6524C84.2005 71.6688 84.1686 71.7016 84.1527 71.718C83.4668 72.4228 83.0747 73.2856 82.9442 74.3394L76.2462 91.3717C76.2462 91.3717 76.2462 91.3717 76.2303 91.3881L61.8651 127.828C61.8177 127.91 61.7868 128.007 61.7558 128.105L48.2679 162.527C47.9405 163.389 48.1487 164.357 48.8053 164.996C49.462 165.635 50.4358 165.817 51.2885 165.466L81.2126 152.878L113.743 139.22ZM71.5372 152.015C73.389 144.626 72.205 138.847 70.6935 135.047C69.4178 131.891 67.7504 129.63 66.6641 128.382L74.3933 108.779C76.146 111.346 78.5497 115.28 80.3661 120.016C84.5031 130.774 83.9799 140.509 78.7929 148.959L71.5372 152.015ZM84.5653 118.262C81.8419 111.24 78.0587 105.932 76.3599 103.736L79.483 95.8297C85.3592 100.367 85.3674 104.3 85.3702 104.494L85.3857 104.445L89.9543 104.743C89.9816 104.386 90.0347 102.46 88.7168 99.7411C87.2648 96.7008 84.7643 93.9166 81.216 91.4211L84.9476 81.937C85.6642 83.3683 86.5605 84.9106 87.6693 86.5958C89.4403 89.3084 91.6353 92.2421 94.1554 95.2688C94.7572 96.5882 97.6692 103.219 98.9267 111.846C100.757 124.253 98.5139 134.835 92.2588 143.299L85.2442 146.238C88.6506 137.778 88.4317 128.215 84.5653 118.262ZM118.351 118.686C118.325 121.34 117.642 129.005 111.581 135.169L99.4662 140.261C103.683 131.887 105.045 121.948 103.431 111.06C103.054 108.491 102.534 106.102 101.986 103.973C103.07 105.092 104.17 106.195 105.303 107.297C109.686 111.53 114.128 115.406 118.351 118.686ZM122.719 121.883C124.011 122.789 125.269 123.598 126.478 124.359C128.176 125.406 129.742 126.26 131.16 126.937L119.657 131.763C121.579 128.113 122.385 124.558 122.719 121.883ZM97.5675 79.3469C98.7763 80.1083 100.019 80.9663 101.295 81.8887C101.151 82.0362 100.992 82.2001 100.848 82.3476C99.9708 83.2491 99.9918 84.7055 100.895 85.5841C101.798 86.4627 103.254 86.444 104.131 85.5425C104.418 85.2475 104.705 84.9524 104.976 84.6414C108.889 87.7149 113.003 91.3038 117.025 95.2175C120.44 98.5402 123.629 101.93 126.444 105.212C124.759 106.221 123.717 106.931 123.637 106.98C122.595 107.69 122.324 109.117 123.035 110.16C123.134 110.289 123.233 110.417 123.332 110.513C124.087 111.247 125.303 111.377 126.217 110.767C126.986 110.239 128.093 109.561 129.409 108.767C130.909 110.642 132.279 112.486 133.437 114.219C137.737 120.573 138.066 123.223 138.029 124.017L137.595 124.2C136.559 124.181 133.832 123.634 127.934 119.873C122.07 116.145 115.174 110.488 108.476 103.97C101.778 97.4529 95.9673 90.7135 92.0481 84.9533C88.1121 79.1448 87.5062 76.4172 87.4594 75.4143L87.6151 74.9915C88.4402 74.9647 91.082 75.2059 97.5675 79.3469ZM54.5157 159.161L64.6801 133.344C67.0304 136.939 69.8842 144.024 65.9865 154.336L54.5157 159.161Z" fill="#FAD520"/>
<path d="M140.466 75.267C140.515 75.3149 140.564 75.3628 140.597 75.3948C141.434 76.2095 142.779 76.2731 143.706 75.4843C143.834 75.3855 155.585 65.2804 165.014 65.8713C166.277 65.9522 167.364 64.9994 167.443 63.736C167.522 62.4725 166.568 61.3841 165.304 61.3033C153.98 60.591 141.238 71.5506 140.71 72.0268C139.752 72.8807 139.643 74.3064 140.466 75.267Z" fill="#FAD520"/>
<path d="M157.572 146.927L161.683 146.874C162.945 146.858 163.95 145.825 163.932 144.563C163.914 143.301 162.879 142.294 161.617 142.31L157.507 142.363L157.447 138.253C157.429 136.991 156.395 135.984 155.133 136.001C153.87 136.017 152.865 137.049 152.884 138.312L152.943 142.422L148.833 142.475C147.57 142.491 146.566 143.524 146.584 144.786C146.593 145.433 146.86 145.98 147.287 146.395C147.714 146.811 148.283 147.046 148.915 147.054L153.025 147.001L153.085 151.112C153.094 151.759 153.361 152.306 153.788 152.721C154.214 153.137 154.784 153.372 155.416 153.38C156.678 153.364 157.683 152.331 157.665 151.069L157.572 146.927Z" fill="#FAD520"/>
<path d="M127.186 73.6087L127.245 77.7191L123.135 77.7719C121.872 77.7882 120.868 78.8208 120.886 80.083C120.895 80.7303 121.162 81.2772 121.589 81.6925C122.016 82.1079 122.586 82.3433 123.217 82.3514L127.327 82.2985L127.387 86.4089C127.396 87.0562 127.663 87.6031 128.09 88.0184C128.516 88.4337 129.086 88.6692 129.718 88.6772C130.98 88.661 131.985 87.6284 131.967 86.3662L131.907 82.2558L136.018 82.203C137.28 82.1867 138.285 81.1541 138.267 79.8919C138.248 78.6297 137.214 77.6233 135.952 77.6395L131.825 77.644L131.765 73.5337C131.747 72.2714 130.713 71.265 129.451 71.2813C128.188 71.2975 127.183 72.3301 127.186 73.6087Z" fill="#FAD520"/>
<path d="M78.6553 55.2957C78.6371 54.0335 77.6028 53.0271 76.3406 53.0433L72.2302 53.0961L72.1708 48.9858C72.1526 47.7236 71.1184 46.7172 69.8561 46.7334C68.5939 46.7496 67.5891 47.7822 67.6073 49.0445L67.6502 53.1388L63.5397 53.1917C62.2775 53.2079 61.2727 54.2405 61.2909 55.5028C61.3002 56.1501 61.5671 56.6969 61.9939 57.1123C62.4207 57.5276 62.9906 57.7631 63.622 57.7711L67.7324 57.7183L67.7918 61.8286C67.8011 62.4759 68.068 63.0228 68.4948 63.4381C68.9216 63.8535 69.4915 64.0889 70.1229 64.097C71.3851 64.0808 72.3899 63.0482 72.3717 61.7859L72.296 57.6596L76.4064 57.6068C77.6687 57.5905 78.6735 56.5579 78.6553 55.2957Z" fill="#FAD520"/>
<path d="M102.781 59.2746C106.066 55.8982 105.988 50.4608 102.606 47.1701C99.2245 43.8794 93.7871 43.9493 90.5015 47.3258C87.2159 50.7022 87.2944 56.1395 90.6762 59.4303C94.0903 62.7206 99.4954 62.6511 102.781 59.2746ZM93.8984 56.1517C92.3224 54.6182 92.286 52.0937 93.8171 50.5202C95.3483 48.9467 97.8728 48.9143 99.4488 50.4478C101.025 51.9814 101.061 54.5058 99.53 56.0793C97.9989 57.6528 95.4579 57.6693 93.8984 56.1517Z" fill="#FAD520"/>
<path d="M138.936 50.0048C142.318 53.2956 147.755 53.2256 151.041 49.8492C154.326 46.4727 154.232 41.0518 150.85 37.7611C147.468 34.4703 142.031 34.5402 138.745 37.9167C135.46 41.2932 135.538 46.6981 138.936 50.0048ZM147.66 41.0392C149.236 42.5727 149.273 45.0972 147.741 46.6707C146.21 48.2442 143.686 48.2766 142.11 46.7431C140.534 45.2095 140.497 42.6851 142.029 41.1116C143.56 39.5381 146.084 39.5056 147.66 41.0392Z" fill="#FAD520"/>
<path d="M154.963 81.6195C151.677 84.9959 151.756 90.4332 155.138 93.724C158.519 97.0147 163.957 96.9448 167.242 93.5683C170.528 90.1919 170.449 84.7545 167.068 81.4638C163.686 78.1731 158.248 78.243 154.963 81.6195ZM163.861 84.726C165.437 86.2595 165.474 88.784 163.943 90.3575C162.412 91.931 159.887 91.9634 158.311 90.4299C156.735 88.8963 156.699 86.3719 158.23 84.7984C159.761 83.2249 162.302 83.2084 163.861 84.726Z" fill="#FAD520"/>
<path d="M79.2473 45.8519C81.0531 47.6091 83.9337 47.5721 85.6881 45.7691C87.4425 43.9661 87.401 41.0856 85.5952 39.3285C83.7894 37.5713 80.9093 37.6407 79.1708 39.4273C77.4323 41.2138 77.4579 44.1107 79.2473 45.8519ZM82.4372 42.5738C82.4536 42.5898 82.4377 42.6062 82.4377 42.6062C82.4217 42.6226 82.4053 42.6066 82.4053 42.6066C82.3889 42.5906 82.4048 42.5742 82.4048 42.5742L82.4372 42.5738Z" fill="#FAD520"/>
<path d="M127.663 55.0541C125.908 56.857 125.95 59.7375 127.755 61.4947C129.561 63.2519 132.442 63.2149 134.196 61.4119C135.951 59.609 135.909 56.7285 134.103 54.9713C132.297 53.2141 129.417 53.2511 127.663 55.0541ZM130.946 58.249C130.93 58.2654 130.913 58.2494 130.913 58.2494C130.897 58.2334 130.913 58.217 130.913 58.217C130.929 58.2006 130.945 58.2166 130.945 58.2166C130.945 58.2166 130.962 58.2326 130.946 58.249Z" fill="#FAD520"/>
<path d="M160.917 107.262C159.111 105.504 156.231 105.542 154.476 107.344C152.722 109.147 152.763 112.028 154.569 113.785C156.375 115.542 159.256 115.505 161.01 113.702C162.764 111.899 162.723 109.019 160.917 107.262ZM157.727 110.54C157.711 110.524 157.727 110.507 157.727 110.507C157.743 110.491 157.759 110.507 157.759 110.507C157.775 110.523 157.76 110.539 157.76 110.539C157.76 110.572 157.744 110.556 157.727 110.54Z" fill="#FAD520"/>
<path d="M162.379 132.33C164.185 134.088 167.066 134.051 168.82 132.248C170.575 130.445 170.533 127.564 168.727 125.807C166.921 124.05 164.041 124.087 162.287 125.89C160.532 127.693 160.574 130.573 162.379 132.33ZM165.569 129.052C165.586 129.068 165.57 129.085 165.57 129.085C165.554 129.101 165.537 129.085 165.537 129.085C165.521 129.069 165.537 129.053 165.537 129.053C165.521 129.037 165.553 129.036 165.569 129.052Z" fill="#FAD520"/>
<path d="M169.996 66.7945C171.802 68.5517 174.682 68.5146 176.437 66.7117C178.191 64.9087 178.117 62.0286 176.328 60.2874C174.539 58.5462 171.642 58.5673 169.887 60.3702C168.133 62.1732 168.19 65.0373 169.996 66.7945ZM173.169 63.5004C173.186 63.5164 173.17 63.5328 173.17 63.5328C173.154 63.5491 173.138 63.5332 173.138 63.5332C173.121 63.5172 173.137 63.5008 173.137 63.5008L173.169 63.5004Z" fill="#FAD520"/>
</g>
<defs>
<clipPath id="clip0_202:327">
<rect width="137" height="164" fill="white" transform="translate(114.373) rotate(44.2183)"/>
</clipPath>
</defs>
</svg>
