<svg xmlns="http://www.w3.org/2000/svg" xmlns:xlink="http://www.w3.org/1999/xlink"><symbol fill="none" id="sprite-cheers" viewBox="0 0 213 214"><title>cheers</title><g clip-path="url(#a)" fill="#FAD520"><path d="m113.743 139.22 24.953-10.502c1.05-.159 1.918-.591 2.62-1.28l.064-.066c2.455-2.556 1.317-7.397-3.499-14.764-1.258-1.926-2.728-3.963-4.377-6.078 4.66-2.359 10.277-4.551 14.295-4.279 1.264.081 2.367-.856 2.446-2.119.079-1.264-.86-2.369-2.123-2.45-4.116-.303-9.533 1.191-16.058 4.415-.53.25-1.045.515-1.526.781-3.047-3.603-6.548-7.33-10.307-10.987-4.104-3.994-8.269-7.663-12.263-10.784 7.327-9.304 10.435-19.427 11.738-26.711 1.632-9.134.905-15.777.869-16.068a2.295 2.295 0 0 0-2.538-2.023 2.285 2.285 0 0 0-2.019 2.535c0 .065.691 6.384-.854 14.87-1.23 6.716-4.106 16.044-10.862 24.595a93.679 93.679 0 0 0-5.247-3.542c-7.48-4.597-12.317-5.603-14.839-3.11l-.063.065c-.686.705-1.078 1.568-1.209 2.621l-6.698 17.033-.016.016-14.365 36.44a1.402 1.402 0 0 0-.11.277l-13.487 34.422c-.328.862-.12 1.83.537 2.469.657.639 1.63.821 2.483.47l29.925-12.588 32.53-13.658Zm-42.206 12.795c1.852-7.389.668-13.168-.844-16.968-1.275-3.156-2.943-5.417-4.029-6.665l7.73-19.603c1.752 2.567 4.156 6.501 5.972 11.237 4.137 10.758 3.614 20.493-1.573 28.943l-7.256 3.056Zm13.028-33.753c-2.723-7.022-6.506-12.33-8.205-14.526l3.123-7.906c5.876 4.537 5.884 8.47 5.887 8.664l.016-.049 4.568.298c.028-.357.08-2.283-1.237-5.002-1.452-3.04-3.953-5.824-7.501-8.32l3.732-9.484c.716 1.431 1.613 2.974 2.721 4.659 1.771 2.712 3.966 5.646 6.486 8.673.602 1.32 3.514 7.95 4.772 16.577 1.83 12.407-.413 22.989-6.668 31.453l-7.015 2.939c3.407-8.46 3.188-18.023-.679-27.976Zm33.786.424c-.026 2.654-.709 10.319-6.77 16.483l-12.115 5.092c4.217-8.374 5.579-18.313 3.965-29.201a68.194 68.194 0 0 0-1.445-7.087 157.429 157.429 0 0 0 3.317 3.324c4.383 4.233 8.825 8.109 13.048 11.389Zm4.368 3.197a89.487 89.487 0 0 0 3.759 2.476 50.224 50.224 0 0 0 4.682 2.578l-11.503 4.826c1.922-3.65 2.728-7.205 3.062-9.88ZM97.568 79.347a71.278 71.278 0 0 1 3.727 2.542l-.447.459a2.295 2.295 0 0 0 .047 3.236c.903.879 2.359.86 3.236-.041.287-.296.574-.59.845-.902 3.913 3.074 8.027 6.663 12.049 10.576a153.801 153.801 0 0 1 9.419 9.995c-1.685 1.009-2.727 1.719-2.807 1.768a2.291 2.291 0 0 0-.602 3.18c.099.129.198.257.297.353a2.32 2.32 0 0 0 2.885.254c.769-.528 1.876-1.206 3.192-2 1.5 1.875 2.87 3.719 4.028 5.452 4.3 6.354 4.629 9.004 4.592 9.798l-.434.183c-1.036-.019-3.763-.566-9.661-4.327-5.864-3.728-12.76-9.385-19.458-15.903-6.698-6.517-12.509-13.257-16.428-19.017-3.936-5.808-4.542-8.536-4.589-9.539l.156-.422c.825-.027 3.467.214 9.953 4.355ZM54.515 159.16l10.164-25.817c2.35 3.595 5.204 10.68 1.306 20.992l-11.47 4.825Zm85.951-83.893.131.128a2.31 2.31 0 0 0 3.109.09c.128-.1 11.879-10.205 21.308-9.614a2.282 2.282 0 0 0 2.429-2.135 2.29 2.29 0 0 0-2.139-2.433c-11.324-.712-24.066 10.248-24.594 10.724-.958.854-1.067 2.28-.244 3.24Zm17.106 71.66 4.111-.053a2.275 2.275 0 0 0 2.249-2.311 2.285 2.285 0 0 0-2.315-2.253l-4.11.053-.06-4.11a2.282 2.282 0 0 0-2.314-2.252 2.273 2.273 0 0 0-2.249 2.311l.059 4.11-4.11.053a2.275 2.275 0 0 0-2.249 2.311c.009.647.276 1.194.703 1.609.427.416.996.651 1.628.659l4.11-.053.06 4.111c.009.647.276 1.194.703 1.609.426.416.996.651 1.628.659a2.275 2.275 0 0 0 2.249-2.311l-.093-4.142Z"/><path d="m127.186 73.609.059 4.11-4.11.053a2.275 2.275 0 0 0-2.249 2.311c.009.647.276 1.194.703 1.61.427.415.997.65 1.628.658l4.11-.052.06 4.11c.009.647.276 1.194.703 1.61.426.415.996.65 1.628.658a2.275 2.275 0 0 0 2.249-2.31l-.06-4.111 4.111-.053a2.276 2.276 0 0 0 2.249-2.311 2.285 2.285 0 0 0-2.315-2.252l-4.127.004-.06-4.11a2.283 2.283 0 0 0-2.314-2.253 2.302 2.302 0 0 0-2.265 2.328ZM78.655 55.296a2.284 2.284 0 0 0-2.314-2.253l-4.11.053-.06-4.11a2.284 2.284 0 0 0-2.315-2.253 2.275 2.275 0 0 0-2.249 2.312l.043 4.094-4.11.053a2.275 2.275 0 0 0-1.546 3.92c.427.416.997.651 1.628.66l4.11-.054.06 4.11c.01.648.276 1.195.703 1.61.427.415.996.65 1.628.659a2.275 2.275 0 0 0 2.249-2.311l-.076-4.126 4.11-.053a2.275 2.275 0 0 0 2.25-2.311Zm24.126 3.979c3.285-3.377 3.207-8.814-.175-12.105-3.381-3.29-8.819-3.22-12.105.156-3.285 3.376-3.207 8.813.175 12.104 3.414 3.29 8.82 3.221 12.105-.155Zm-8.883-3.123a3.985 3.985 0 0 1-.08-5.632 3.985 3.985 0 0 1 5.712 5.56c-1.531 1.573-4.072 1.59-5.632.072Zm45.038-6.147c3.382 3.29 8.819 3.22 12.105-.156 3.285-3.376 3.191-8.797-.191-12.088-3.382-3.29-8.819-3.22-12.105.156-3.285 3.376-3.207 8.781.191 12.088Zm8.724-8.966a3.985 3.985 0 0 1 .081 5.632 3.985 3.985 0 0 1-5.631.072 3.985 3.985 0 0 1-.081-5.631 3.985 3.985 0 0 1 5.631-.073Zm7.303 40.581c-3.286 3.376-3.207 8.813.175 12.104 3.381 3.29 8.819 3.22 12.104-.156 3.286-3.376 3.207-8.814-.174-12.104-3.382-3.29-8.82-3.221-12.105.156Zm8.898 3.106a3.985 3.985 0 0 1 .082 5.632 3.986 3.986 0 0 1-5.713-5.56c1.531-1.573 4.072-1.59 5.631-.072ZM79.247 45.852a4.552 4.552 0 1 0 6.348-6.523c-1.806-1.758-4.686-1.688-6.424.098-1.739 1.787-1.713 4.684.076 6.425Zm3.19-3.278c.017.016 0 .032 0 .032-.015.017-.032 0-.032 0-.016-.015 0-.032 0-.032h.032Zm45.226 12.48a4.552 4.552 0 0 0 .092 6.44 4.552 4.552 0 1 0 6.348-6.523 4.55 4.55 0 0 0-6.44.083Zm3.283 3.195c-.016.016-.033 0-.033 0-.016-.016 0-.032 0-.032.016-.016.032 0 .032 0s.017.016.001.032Zm29.971 49.013a4.552 4.552 0 0 0-6.441.082 4.553 4.553 0 0 0 .093 6.441 4.551 4.551 0 1 0 6.348-6.523Zm-3.19 3.278c-.016-.016 0-.033 0-.033.016-.016.032 0 .032 0 .016.016.001.032.001.032 0 .033-.016.017-.033.001Zm4.652 21.79a4.551 4.551 0 1 0 6.348-6.523 4.551 4.551 0 1 0-6.348 6.523Zm3.19-3.278c.017.016.001.033.001.033-.016.016-.033 0-.033 0-.016-.016 0-.032 0-.032-.016-.016.016-.017.032-.001Zm4.427-62.258a4.552 4.552 0 0 0 6.441-.082c1.754-1.803 1.68-4.683-.109-6.425-1.789-1.74-4.686-1.72-6.441.083-1.754 1.803-1.697 4.667.109 6.425Zm3.173-3.294c.017.016.001.033.001.033-.016.016-.032 0-.032 0-.017-.016-.001-.032-.001-.032h.032Z"/></g><defs><clipPath id="a"><path fill="#fff" transform="rotate(44.218 57.186 140.769)" d="M0 0h137v164H0z"/></clipPath></defs></symbol><use fill="none" xlink:href="#sprite-cheers" width="213" height="214"/><view id="sprite-cheers-fragment" viewBox="0 0 213 214"/></svg>